<?xml version="1.0" encoding="UTF-8" standalone="no"?>
<!DOCTYPE svg PUBLIC "-//W3C//DTD SVG 1.1//EN"
 "http://www.w3.org/Graphics/SVG/1.1/DTD/svg11.dtd">
<!-- Generated by graphviz version 2.43.0 (0)
 -->
<!-- Title: mcts_tree Pages: 1 -->
<svg width="385pt" height="687pt"
 viewBox="0.00 0.00 385.00 687.00" xmlns="http://www.w3.org/2000/svg" xmlns:xlink="http://www.w3.org/1999/xlink">
<g id="graph0" class="graph" transform="scale(1 1) rotate(0) translate(4 683)">
<title>mcts_tree</title>
<polygon fill="white" stroke="transparent" points="-4,4 -4,-683 381,-683 381,4 -4,4"/>
<text text-anchor="middle" x="188.5" y="-663.8" font-family="Times,serif" font-size="14.00">simple_mean_bug_001 &#160;model=ollama/qwen3.5:9b</text>
<!-- n0 -->
<g id="node1" class="node">
<title>n0</title>
<polygon fill="#a8d5b5" stroke="black" points="244,-656 133,-656 133,-618 244,-618 244,-656"/>
<text text-anchor="middle" x="188.5" y="-644.8" font-family="Courier,monospace" font-size="9.00">[root]</text>
<text text-anchor="middle" x="188.5" y="-634.8" font-family="Courier,monospace" font-size="9.00">d=0 &#160;val=20.8 &#160;v=7</text>
<text text-anchor="middle" x="188.5" y="-624.8" font-family="Courier,monospace" font-size="9.00">*</text>
</g>
<!-- n0_0 -->
<g id="node2" class="node">
<title>n0_0</title>
<polygon fill="#a8d5b5" stroke="black" points="244,-582 133,-582 133,-544 244,-544 244,-582"/>
<text text-anchor="middle" x="188.5" y="-570.8" font-family="Courier,monospace" font-size="9.00">[view]</text>
<text text-anchor="middle" x="188.5" y="-560.8" font-family="Courier,monospace" font-size="9.00">d=1 &#160;val=20.8 &#160;v=7</text>
<text text-anchor="middle" x="188.5" y="-550.8" font-family="Courier,monospace" font-size="9.00">*</text>
</g>
<!-- n0&#45;&gt;n0_0 -->
<g id="edge1" class="edge">
<title>n0&#45;&gt;n0_0</title>
<path fill="none" stroke="black" d="M188.5,-617.83C188.5,-609.28 188.5,-598.94 188.5,-589.62"/>
<polygon fill="black" stroke="black" points="190.95,-589.41 188.5,-582.41 186.05,-589.41 190.95,-589.41"/>
</g>
<!-- n0_0_0 -->
<g id="node3" class="node">
<title>n0_0_0</title>
<polygon fill="#a8d5b5" stroke="black" points="244,-508 133,-508 133,-470 244,-470 244,-508"/>
<text text-anchor="middle" x="188.5" y="-496.8" font-family="Courier,monospace" font-size="9.00">[bash]</text>
<text text-anchor="middle" x="188.5" y="-486.8" font-family="Courier,monospace" font-size="9.00">d=2 &#160;val=24.2 &#160;v=6</text>
<text text-anchor="middle" x="188.5" y="-476.8" font-family="Courier,monospace" font-size="9.00">*</text>
</g>
<!-- n0_0&#45;&gt;n0_0_0 -->
<g id="edge2" class="edge">
<title>n0_0&#45;&gt;n0_0_0</title>
<path fill="none" stroke="black" d="M188.5,-543.83C188.5,-535.28 188.5,-524.94 188.5,-515.62"/>
<polygon fill="black" stroke="black" points="190.95,-515.41 188.5,-508.41 186.05,-515.41 190.95,-515.41"/>
</g>
<!-- n0_0_0_0 -->
<g id="node4" class="node">
<title>n0_0_0_0</title>
<polygon fill="#a8d5b5" stroke="black" points="244,-434 133,-434 133,-376 244,-376 244,-434"/>
<text text-anchor="middle" x="188.5" y="-422.8" font-family="Courier,monospace" font-size="9.00">[str_replace]</text>
<text text-anchor="middle" x="188.5" y="-412.8" font-family="Courier,monospace" font-size="9.00">d=3 &#160;val=29.1 &#160;v=5</text>
<text text-anchor="middle" x="188.5" y="-402.8" font-family="Courier,monospace" font-size="9.00">* branch</text>
<text text-anchor="middle" x="188.5" y="-392.8" font-family="Courier,monospace" font-size="9.00">+edit</text>
<text text-anchor="middle" x="188.5" y="-382.8" font-family="Courier,monospace" font-size="9.00">votes=2/2</text>
</g>
<!-- n0_0_0&#45;&gt;n0_0_0_0 -->
<g id="edge3" class="edge">
<title>n0_0_0&#45;&gt;n0_0_0_0</title>
<path fill="none" stroke="black" d="M188.5,-469.8C188.5,-461.37 188.5,-451.06 188.5,-441.2"/>
<polygon fill="black" stroke="black" points="190.95,-441.14 188.5,-434.14 186.05,-441.14 190.95,-441.14"/>
</g>
<!-- n0_0_0_0_0 -->
<g id="node5" class="node">
<title>n0_0_0_0_0</title>
<polygon fill="#a8d5b5" stroke="black" points="244,-340 133,-340 133,-282 244,-282 244,-340"/>
<text text-anchor="middle" x="188.5" y="-328.8" font-family="Courier,monospace" font-size="9.00">[bash]</text>
<text text-anchor="middle" x="188.5" y="-318.8" font-family="Courier,monospace" font-size="9.00">d=4 &#160;val=35.7 &#160;v=4</text>
<text text-anchor="middle" x="188.5" y="-308.8" font-family="Courier,monospace" font-size="9.00">*</text>
<text text-anchor="middle" x="188.5" y="-298.8" font-family="Courier,monospace" font-size="9.00">+edit</text>
<text text-anchor="middle" x="188.5" y="-288.8" font-family="Courier,monospace" font-size="9.00">checks=1</text>
</g>
<!-- n0_0_0_0&#45;&gt;n0_0_0_0_0 -->
<g id="edge4" class="edge">
<title>n0_0_0_0&#45;&gt;n0_0_0_0_0</title>
<path fill="none" stroke="black" d="M188.5,-375.9C188.5,-366.89 188.5,-356.79 188.5,-347.33"/>
<polygon fill="black" stroke="black" points="190.95,-347.25 188.5,-340.25 186.05,-347.25 190.95,-347.25"/>
</g>
<!-- n0_0_0_0_0_0 -->
<g id="node6" class="node">
<title>n0_0_0_0_0_0</title>
<polygon fill="#a8d5b5" stroke="black" points="244,-246 133,-246 133,-188 244,-188 244,-246"/>
<text text-anchor="middle" x="188.5" y="-234.8" font-family="Courier,monospace" font-size="9.00">[submit]</text>
<text text-anchor="middle" x="188.5" y="-224.8" font-family="Courier,monospace" font-size="9.00">d=5 &#160;val=37.2 &#160;v=3</text>
<text text-anchor="middle" x="188.5" y="-214.8" font-family="Courier,monospace" font-size="9.00">*</text>
<text text-anchor="middle" x="188.5" y="-204.8" font-family="Courier,monospace" font-size="9.00">+edit</text>
<text text-anchor="middle" x="188.5" y="-194.8" font-family="Courier,monospace" font-size="9.00">checks=1</text>
</g>
<!-- n0_0_0_0_0&#45;&gt;n0_0_0_0_0_0 -->
<g id="edge5" class="edge">
<title>n0_0_0_0_0&#45;&gt;n0_0_0_0_0_0</title>
<path fill="none" stroke="black" d="M188.5,-281.9C188.5,-272.89 188.5,-262.79 188.5,-253.33"/>
<polygon fill="black" stroke="black" points="190.95,-253.25 188.5,-246.25 186.05,-253.25 190.95,-253.25"/>
</g>
<!-- n0_0_0_0_0_0_0 -->
<g id="node7" class="node">
<title>n0_0_0_0_0_0_0</title>
<polygon fill="#a8d5b5" stroke="black" points="244,-152 133,-152 133,-94 244,-94 244,-152"/>
<text text-anchor="middle" x="188.5" y="-140.8" font-family="Courier,monospace" font-size="9.00">[bash]</text>
<text text-anchor="middle" x="188.5" y="-130.8" font-family="Courier,monospace" font-size="9.00">d=6 &#160;val=41.3 &#160;v=2</text>
<text text-anchor="middle" x="188.5" y="-120.8" font-family="Courier,monospace" font-size="9.00">*</text>
<text text-anchor="middle" x="188.5" y="-110.8" font-family="Courier,monospace" font-size="9.00">+edit</text>
<text text-anchor="middle" x="188.5" y="-100.8" font-family="Courier,monospace" font-size="9.00">checks=1</text>
</g>
<!-- n0_0_0_0_0_0&#45;&gt;n0_0_0_0_0_0_0 -->
<g id="edge6" class="edge">
<title>n0_0_0_0_0_0&#45;&gt;n0_0_0_0_0_0_0</title>
<path fill="none" stroke="black" d="M188.5,-187.9C188.5,-178.89 188.5,-168.79 188.5,-159.33"/>
<polygon fill="black" stroke="black" points="190.95,-159.25 188.5,-152.25 186.05,-159.25 190.95,-159.25"/>
</g>
<!-- n0_0_0_0_0_0_0_0 -->
<g id="node8" class="node">
<title>n0_0_0_0_0_0_0_0</title>
<polygon fill="#2ecc71" stroke="black" points="244,-58 133,-58 133,0 244,0 244,-58"/>
<text text-anchor="middle" x="188.5" y="-46.8" font-family="Courier,monospace" font-size="9.00">[submit]</text>
<text text-anchor="middle" x="188.5" y="-36.8" font-family="Courier,monospace" font-size="9.00">d=7 &#160;val=50.9 &#160;v=1</text>
<text text-anchor="middle" x="188.5" y="-26.8" font-family="Courier,monospace" font-size="9.00">* SUBMIT</text>
<text text-anchor="middle" x="188.5" y="-16.8" font-family="Courier,monospace" font-size="9.00">+edit</text>
<text text-anchor="middle" x="188.5" y="-6.8" font-family="Courier,monospace" font-size="9.00">checks=1</text>
</g>
<!-- n0_0_0_0_0_0_0&#45;&gt;n0_0_0_0_0_0_0_0 -->
<g id="edge7" class="edge">
<title>n0_0_0_0_0_0_0&#45;&gt;n0_0_0_0_0_0_0_0</title>
<path fill="none" stroke="black" d="M188.5,-93.9C188.5,-84.89 188.5,-74.79 188.5,-65.33"/>
<polygon fill="black" stroke="black" points="190.95,-65.25 188.5,-58.25 186.05,-65.25 190.95,-65.25"/>
</g>
</g>
</svg>
