<?xml version="1.0" encoding="UTF-8" standalone="no"?>
<!DOCTYPE svg PUBLIC "-//W3C//DTD SVG 1.1//EN"
 "http://www.w3.org/Graphics/SVG/1.1/DTD/svg11.dtd">
<!-- Generated by graphviz version 2.43.0 (0)
 -->
<!-- Title: mcts_tree Pages: 1 -->
<svg width="348pt" height="2139pt"
 viewBox="0.00 0.00 348.00 2139.00" xmlns="http://www.w3.org/2000/svg" xmlns:xlink="http://www.w3.org/1999/xlink">
<g id="graph0" class="graph" transform="scale(1 1) rotate(0) translate(4 2135)">
<title>mcts_tree</title>
<polygon fill="white" stroke="transparent" points="-4,4 -4,-2135 344,-2135 344,4 -4,4"/>
<text text-anchor="middle" x="170" y="-2115.8" font-family="Times,serif" font-size="14.00">board_rollup_001 &#160;model=ollama/qwen3.5:9b</text>
<!-- n0 -->
<g id="node1" class="node">
<title>n0</title>
<polygon fill="#a8d5b5" stroke="black" points="225.5,-2108 114.5,-2108 114.5,-2070 225.5,-2070 225.5,-2108"/>
<text text-anchor="middle" x="170" y="-2096.8" font-family="Courier,monospace" font-size="9.00">[root]</text>
<text text-anchor="middle" x="170" y="-2086.8" font-family="Courier,monospace" font-size="9.00">d=0 &#160;val=7.1 &#160;v=40</text>
<text text-anchor="middle" x="170" y="-2076.8" font-family="Courier,monospace" font-size="9.00">*</text>
</g>
<!-- n0_0 -->
<g id="node2" class="node">
<title>n0_0</title>
<polygon fill="#a8d5b5" stroke="black" points="225.5,-2034 114.5,-2034 114.5,-1996 225.5,-1996 225.5,-2034"/>
<text text-anchor="middle" x="170" y="-2022.8" font-family="Courier,monospace" font-size="9.00">[view]</text>
<text text-anchor="middle" x="170" y="-2012.8" font-family="Courier,monospace" font-size="9.00">d=1 &#160;val=7.1 &#160;v=40</text>
<text text-anchor="middle" x="170" y="-2002.8" font-family="Courier,monospace" font-size="9.00">*</text>
</g>
<!-- n0&#45;&gt;n0_0 -->
<g id="edge1" class="edge">
<title>n0&#45;&gt;n0_0</title>
<path fill="none" stroke="black" d="M170,-2069.83C170,-2061.28 170,-2050.94 170,-2041.62"/>
<polygon fill="black" stroke="black" points="172.45,-2041.41 170,-2034.41 167.55,-2041.41 172.45,-2041.41"/>
</g>
<!-- n0_0_0 -->
<g id="node3" class="node">
<title>n0_0_0</title>
<polygon fill="#a8d5b5" stroke="black" points="225.5,-1960 114.5,-1960 114.5,-1922 225.5,-1922 225.5,-1960"/>
<text text-anchor="middle" x="170" y="-1948.8" font-family="Courier,monospace" font-size="9.00">[view]</text>
<text text-anchor="middle" x="170" y="-1938.8" font-family="Courier,monospace" font-size="9.00">d=2 &#160;val=7.3 &#160;v=39</text>
<text text-anchor="middle" x="170" y="-1928.8" font-family="Courier,monospace" font-size="9.00">*</text>
</g>
<!-- n0_0&#45;&gt;n0_0_0 -->
<g id="edge2" class="edge">
<title>n0_0&#45;&gt;n0_0_0</title>
<path fill="none" stroke="black" d="M170,-1995.83C170,-1987.28 170,-1976.94 170,-1967.62"/>
<polygon fill="black" stroke="black" points="172.45,-1967.41 170,-1960.41 167.55,-1967.41 172.45,-1967.41"/>
</g>
<!-- n0_0_0_0 -->
<g id="node4" class="node">
<title>n0_0_0_0</title>
<polygon fill="#a8d5b5" stroke="black" points="225.5,-1886 114.5,-1886 114.5,-1848 225.5,-1848 225.5,-1886"/>
<text text-anchor="middle" x="170" y="-1874.8" font-family="Courier,monospace" font-size="9.00">[view]</text>
<text text-anchor="middle" x="170" y="-1864.8" font-family="Courier,monospace" font-size="9.00">d=3 &#160;val=7.5 &#160;v=38</text>
<text text-anchor="middle" x="170" y="-1854.8" font-family="Courier,monospace" font-size="9.00">*</text>
</g>
<!-- n0_0_0&#45;&gt;n0_0_0_0 -->
<g id="edge3" class="edge">
<title>n0_0_0&#45;&gt;n0_0_0_0</title>
<path fill="none" stroke="black" d="M170,-1921.83C170,-1913.28 170,-1902.94 170,-1893.62"/>
<polygon fill="black" stroke="black" points="172.45,-1893.41 170,-1886.41 167.55,-1893.41 172.45,-1893.41"/>
</g>
<!-- n0_0_0_0_0 -->
<g id="node5" class="node">
<title>n0_0_0_0_0</title>
<polygon fill="#a8d5b5" stroke="black" points="225.5,-1812 114.5,-1812 114.5,-1774 225.5,-1774 225.5,-1812"/>
<text text-anchor="middle" x="170" y="-1800.8" font-family="Courier,monospace" font-size="9.00">[bash]</text>
<text text-anchor="middle" x="170" y="-1790.8" font-family="Courier,monospace" font-size="9.00">d=4 &#160;val=7.7 &#160;v=37</text>
<text text-anchor="middle" x="170" y="-1780.8" font-family="Courier,monospace" font-size="9.00">*</text>
</g>
<!-- n0_0_0_0&#45;&gt;n0_0_0_0_0 -->
<g id="edge4" class="edge">
<title>n0_0_0_0&#45;&gt;n0_0_0_0_0</title>
<path fill="none" stroke="black" d="M170,-1847.83C170,-1839.28 170,-1828.94 170,-1819.62"/>
<polygon fill="black" stroke="black" points="172.45,-1819.41 170,-1812.41 167.55,-1819.41 172.45,-1819.41"/>
</g>
<!-- n0_0_0_0_0_0 -->
<g id="node6" class="node">
<title>n0_0_0_0_0_0</title>
<polygon fill="#a8d5b5" stroke="black" points="225.5,-1738 114.5,-1738 114.5,-1680 225.5,-1680 225.5,-1738"/>
<text text-anchor="middle" x="170" y="-1726.8" font-family="Courier,monospace" font-size="9.00">[str_replace]</text>
<text text-anchor="middle" x="170" y="-1716.8" font-family="Courier,monospace" font-size="9.00">d=5 &#160;val=7.9 &#160;v=36</text>
<text text-anchor="middle" x="170" y="-1706.8" font-family="Courier,monospace" font-size="9.00">* branch</text>
<text text-anchor="middle" x="170" y="-1696.8" font-family="Courier,monospace" font-size="9.00">+edit</text>
<text text-anchor="middle" x="170" y="-1686.8" font-family="Courier,monospace" font-size="9.00">votes=2/2</text>
</g>
<!-- n0_0_0_0_0&#45;&gt;n0_0_0_0_0_0 -->
<g id="edge5" class="edge">
<title>n0_0_0_0_0&#45;&gt;n0_0_0_0_0_0</title>
<path fill="none" stroke="black" d="M170,-1773.8C170,-1765.37 170,-1755.06 170,-1745.2"/>
<polygon fill="black" stroke="black" points="172.45,-1745.14 170,-1738.14 167.55,-1745.14 172.45,-1745.14"/>
</g>
<!-- n0_0_0_0_0_0_0 -->
<g id="node7" class="node">
<title>n0_0_0_0_0_0_0</title>
<polygon fill="#a8d5b5" stroke="black" points="225.5,-1644 114.5,-1644 114.5,-1596 225.5,-1596 225.5,-1644"/>
<text text-anchor="middle" x="170" y="-1632.8" font-family="Courier,monospace" font-size="9.00">[bash]</text>
<text text-anchor="middle" x="170" y="-1622.8" font-family="Courier,monospace" font-size="9.00">d=6 &#160;val=8.1 &#160;v=35</text>
<text text-anchor="middle" x="170" y="-1612.8" font-family="Courier,monospace" font-size="9.00">*</text>
<text text-anchor="middle" x="170" y="-1602.8" font-family="Courier,monospace" font-size="9.00">+edit</text>
</g>
<!-- n0_0_0_0_0_0&#45;&gt;n0_0_0_0_0_0_0 -->
<g id="edge6" class="edge">
<title>n0_0_0_0_0_0&#45;&gt;n0_0_0_0_0_0_0</title>
<path fill="none" stroke="black" d="M170,-1679.99C170,-1670.82 170,-1660.59 170,-1651.26"/>
<polygon fill="black" stroke="black" points="172.45,-1651.01 170,-1644.01 167.55,-1651.01 172.45,-1651.01"/>
</g>
<!-- n0_0_0_0_0_0_0_0 -->
<g id="node8" class="node">
<title>n0_0_0_0_0_0_0_0</title>
<polygon fill="#a8d5b5" stroke="black" points="225.5,-1560 114.5,-1560 114.5,-1512 225.5,-1512 225.5,-1560"/>
<text text-anchor="middle" x="170" y="-1548.8" font-family="Courier,monospace" font-size="9.00">[submit]</text>
<text text-anchor="middle" x="170" y="-1538.8" font-family="Courier,monospace" font-size="9.00">d=7 &#160;val=7.9 &#160;v=34</text>
<text text-anchor="middle" x="170" y="-1528.8" font-family="Courier,monospace" font-size="9.00">*</text>
<text text-anchor="middle" x="170" y="-1518.8" font-family="Courier,monospace" font-size="9.00">+edit</text>
</g>
<!-- n0_0_0_0_0_0_0&#45;&gt;n0_0_0_0_0_0_0_0 -->
<g id="edge7" class="edge">
<title>n0_0_0_0_0_0_0&#45;&gt;n0_0_0_0_0_0_0_0</title>
<path fill="none" stroke="black" d="M170,-1595.72C170,-1586.82 170,-1576.53 170,-1567.08"/>
<polygon fill="black" stroke="black" points="172.45,-1567.05 170,-1560.05 167.55,-1567.05 172.45,-1567.05"/>
</g>
<!-- n0_0_0_0_0_0_0_0_0 -->
<g id="node9" class="node">
<title>n0_0_0_0_0_0_0_0_0</title>
<polygon fill="#a8d5b5" stroke="black" points="225.5,-1476 114.5,-1476 114.5,-1428 225.5,-1428 225.5,-1476"/>
<text text-anchor="middle" x="170" y="-1464.8" font-family="Courier,monospace" font-size="9.00">[bash]</text>
<text text-anchor="middle" x="170" y="-1454.8" font-family="Courier,monospace" font-size="9.00">d=8 &#160;val=7.8 &#160;v=33</text>
<text text-anchor="middle" x="170" y="-1444.8" font-family="Courier,monospace" font-size="9.00">*</text>
<text text-anchor="middle" x="170" y="-1434.8" font-family="Courier,monospace" font-size="9.00">+edit</text>
</g>
<!-- n0_0_0_0_0_0_0_0&#45;&gt;n0_0_0_0_0_0_0_0_0 -->
<g id="edge8" class="edge">
<title>n0_0_0_0_0_0_0_0&#45;&gt;n0_0_0_0_0_0_0_0_0</title>
<path fill="none" stroke="black" d="M170,-1511.72C170,-1502.82 170,-1492.53 170,-1483.08"/>
<polygon fill="black" stroke="black" points="172.45,-1483.05 170,-1476.05 167.55,-1483.05 172.45,-1483.05"/>
</g>
<!-- n0_0_0_0_0_0_0_0_0_0 -->
<g id="node10" class="node">
<title>n0_0_0_0_0_0_0_0_0_0</title>
<polygon fill="#a8d5b5" stroke="black" points="225.5,-1392 114.5,-1392 114.5,-1344 225.5,-1344 225.5,-1392"/>
<text text-anchor="middle" x="170" y="-1380.8" font-family="Courier,monospace" font-size="9.00">[submit]</text>
<text text-anchor="middle" x="170" y="-1370.8" font-family="Courier,monospace" font-size="9.00">d=9 &#160;val=7.7 &#160;v=32</text>
<text text-anchor="middle" x="170" y="-1360.8" font-family="Courier,monospace" font-size="9.00">*</text>
<text text-anchor="middle" x="170" y="-1350.8" font-family="Courier,monospace" font-size="9.00">+edit</text>
</g>
<!-- n0_0_0_0_0_0_0_0_0&#45;&gt;n0_0_0_0_0_0_0_0_0_0 -->
<g id="edge9" class="edge">
<title>n0_0_0_0_0_0_0_0_0&#45;&gt;n0_0_0_0_0_0_0_0_0_0</title>
<path fill="none" stroke="black" d="M170,-1427.72C170,-1418.82 170,-1408.53 170,-1399.08"/>
<polygon fill="black" stroke="black" points="172.45,-1399.05 170,-1392.05 167.55,-1399.05 172.45,-1399.05"/>
</g>
<!-- n0_0_0_0_0_0_0_0_0_0_0 -->
<g id="node11" class="node">
<title>n0_0_0_0_0_0_0_0_0_0_0</title>
<polygon fill="#a8d5b5" stroke="black" points="228,-1308 112,-1308 112,-1260 228,-1260 228,-1308"/>
<text text-anchor="middle" x="170" y="-1296.8" font-family="Courier,monospace" font-size="9.00">[bash]</text>
<text text-anchor="middle" x="170" y="-1286.8" font-family="Courier,monospace" font-size="9.00">d=10 &#160;val=7.6 &#160;v=31</text>
<text text-anchor="middle" x="170" y="-1276.8" font-family="Courier,monospace" font-size="9.00">*</text>
<text text-anchor="middle" x="170" y="-1266.8" font-family="Courier,monospace" font-size="9.00">+edit</text>
</g>
<!-- n0_0_0_0_0_0_0_0_0_0&#45;&gt;n0_0_0_0_0_0_0_0_0_0_0 -->
<g id="edge10" class="edge">
<title>n0_0_0_0_0_0_0_0_0_0&#45;&gt;n0_0_0_0_0_0_0_0_0_0_0</title>
<path fill="none" stroke="black" d="M170,-1343.72C170,-1334.82 170,-1324.53 170,-1315.08"/>
<polygon fill="black" stroke="black" points="172.45,-1315.05 170,-1308.05 167.55,-1315.05 172.45,-1315.05"/>
</g>
<!-- n0_0_0_0_0_0_0_0_0_0_0_0 -->
<g id="node12" class="node">
<title>n0_0_0_0_0_0_0_0_0_0_0_0</title>
<polygon fill="#a8d5b5" stroke="black" points="228,-1224 112,-1224 112,-1176 228,-1176 228,-1224"/>
<text text-anchor="middle" x="170" y="-1212.8" font-family="Courier,monospace" font-size="9.00">[submit]</text>
<text text-anchor="middle" x="170" y="-1202.8" font-family="Courier,monospace" font-size="9.00">d=11 &#160;val=7.5 &#160;v=30</text>
<text text-anchor="middle" x="170" y="-1192.8" font-family="Courier,monospace" font-size="9.00">*</text>
<text text-anchor="middle" x="170" y="-1182.8" font-family="Courier,monospace" font-size="9.00">+edit</text>
</g>
<!-- n0_0_0_0_0_0_0_0_0_0_0&#45;&gt;n0_0_0_0_0_0_0_0_0_0_0_0 -->
<g id="edge11" class="edge">
<title>n0_0_0_0_0_0_0_0_0_0_0&#45;&gt;n0_0_0_0_0_0_0_0_0_0_0_0</title>
<path fill="none" stroke="black" d="M170,-1259.72C170,-1250.82 170,-1240.53 170,-1231.08"/>
<polygon fill="black" stroke="black" points="172.45,-1231.05 170,-1224.05 167.55,-1231.05 172.45,-1231.05"/>
</g>
<!-- n0_0_0_0_0_0_0_0_0_0_0_0_0 -->
<g id="node13" class="node">
<title>n0_0_0_0_0_0_0_0_0_0_0_0_0</title>
<polygon fill="#a8d5b5" stroke="black" points="228,-1140 112,-1140 112,-1092 228,-1092 228,-1140"/>
<text text-anchor="middle" x="170" y="-1128.8" font-family="Courier,monospace" font-size="9.00">[bash]</text>
<text text-anchor="middle" x="170" y="-1118.8" font-family="Courier,monospace" font-size="9.00">d=12 &#160;val=7.4 &#160;v=29</text>
<text text-anchor="middle" x="170" y="-1108.8" font-family="Courier,monospace" font-size="9.00">*</text>
<text text-anchor="middle" x="170" y="-1098.8" font-family="Courier,monospace" font-size="9.00">+edit</text>
</g>
<!-- n0_0_0_0_0_0_0_0_0_0_0_0&#45;&gt;n0_0_0_0_0_0_0_0_0_0_0_0_0 -->
<g id="edge12" class="edge">
<title>n0_0_0_0_0_0_0_0_0_0_0_0&#45;&gt;n0_0_0_0_0_0_0_0_0_0_0_0_0</title>
<path fill="none" stroke="black" d="M170,-1175.72C170,-1166.82 170,-1156.53 170,-1147.08"/>
<polygon fill="black" stroke="black" points="172.45,-1147.05 170,-1140.05 167.55,-1147.05 172.45,-1147.05"/>
</g>
<!-- n0_0_0_0_0_0_0_0_0_0_0_0_0_0 -->
<g id="node14" class="node">
<title>n0_0_0_0_0_0_0_0_0_0_0_0_0_0</title>
<polygon fill="#a8d5b5" stroke="black" points="228,-1056 112,-1056 112,-1008 228,-1008 228,-1056"/>
<text text-anchor="middle" x="170" y="-1044.8" font-family="Courier,monospace" font-size="9.00">[submit]</text>
<text text-anchor="middle" x="170" y="-1034.8" font-family="Courier,monospace" font-size="9.00">d=13 &#160;val=7.3 &#160;v=28</text>
<text text-anchor="middle" x="170" y="-1024.8" font-family="Courier,monospace" font-size="9.00">*</text>
<text text-anchor="middle" x="170" y="-1014.8" font-family="Courier,monospace" font-size="9.00">+edit</text>
</g>
<!-- n0_0_0_0_0_0_0_0_0_0_0_0_0&#45;&gt;n0_0_0_0_0_0_0_0_0_0_0_0_0_0 -->
<g id="edge13" class="edge">
<title>n0_0_0_0_0_0_0_0_0_0_0_0_0&#45;&gt;n0_0_0_0_0_0_0_0_0_0_0_0_0_0</title>
<path fill="none" stroke="black" d="M170,-1091.72C170,-1082.82 170,-1072.53 170,-1063.08"/>
<polygon fill="black" stroke="black" points="172.45,-1063.05 170,-1056.05 167.55,-1063.05 172.45,-1063.05"/>
</g>
<!-- n0_0_0_0_0_0_0_0_0_0_0_0_0_0_0 -->
<g id="node15" class="node">
<title>n0_0_0_0_0_0_0_0_0_0_0_0_0_0_0</title>
<polygon fill="#a8d5b5" stroke="black" points="228,-972 112,-972 112,-924 228,-924 228,-972"/>
<text text-anchor="middle" x="170" y="-960.8" font-family="Courier,monospace" font-size="9.00">[bash]</text>
<text text-anchor="middle" x="170" y="-950.8" font-family="Courier,monospace" font-size="9.00">d=14 &#160;val=7.2 &#160;v=27</text>
<text text-anchor="middle" x="170" y="-940.8" font-family="Courier,monospace" font-size="9.00">*</text>
<text text-anchor="middle" x="170" y="-930.8" font-family="Courier,monospace" font-size="9.00">+edit</text>
</g>
<!-- n0_0_0_0_0_0_0_0_0_0_0_0_0_0&#45;&gt;n0_0_0_0_0_0_0_0_0_0_0_0_0_0_0 -->
<g id="edge14" class="edge">
<title>n0_0_0_0_0_0_0_0_0_0_0_0_0_0&#45;&gt;n0_0_0_0_0_0_0_0_0_0_0_0_0_0_0</title>
<path fill="none" stroke="black" d="M170,-1007.72C170,-998.82 170,-988.53 170,-979.08"/>
<polygon fill="black" stroke="black" points="172.45,-979.05 170,-972.05 167.55,-979.05 172.45,-979.05"/>
</g>
<!-- n0_0_0_0_0_0_0_0_0_0_0_0_0_0_0_0 -->
<g id="node16" class="node">
<title>n0_0_0_0_0_0_0_0_0_0_0_0_0_0_0_0</title>
<polygon fill="#a8d5b5" stroke="black" points="228,-888 112,-888 112,-840 228,-840 228,-888"/>
<text text-anchor="middle" x="170" y="-876.8" font-family="Courier,monospace" font-size="9.00">[submit]</text>
<text text-anchor="middle" x="170" y="-866.8" font-family="Courier,monospace" font-size="9.00">d=15 &#160;val=7.1 &#160;v=26</text>
<text text-anchor="middle" x="170" y="-856.8" font-family="Courier,monospace" font-size="9.00">*</text>
<text text-anchor="middle" x="170" y="-846.8" font-family="Courier,monospace" font-size="9.00">+edit</text>
</g>
<!-- n0_0_0_0_0_0_0_0_0_0_0_0_0_0_0&#45;&gt;n0_0_0_0_0_0_0_0_0_0_0_0_0_0_0_0 -->
<g id="edge15" class="edge">
<title>n0_0_0_0_0_0_0_0_0_0_0_0_0_0_0&#45;&gt;n0_0_0_0_0_0_0_0_0_0_0_0_0_0_0_0</title>
<path fill="none" stroke="black" d="M170,-923.72C170,-914.82 170,-904.53 170,-895.08"/>
<polygon fill="black" stroke="black" points="172.45,-895.05 170,-888.05 167.55,-895.05 172.45,-895.05"/>
</g>
<!-- n0_0_0_0_0_0_0_0_0_0_0_0_0_0_0_0_0 -->
<g id="node17" class="node">
<title>n0_0_0_0_0_0_0_0_0_0_0_0_0_0_0_0_0</title>
<polygon fill="#a8d5b5" stroke="black" points="228,-804 112,-804 112,-756 228,-756 228,-804"/>
<text text-anchor="middle" x="170" y="-792.8" font-family="Courier,monospace" font-size="9.00">[bash]</text>
<text text-anchor="middle" x="170" y="-782.8" font-family="Courier,monospace" font-size="9.00">d=16 &#160;val=7.0 &#160;v=25</text>
<text text-anchor="middle" x="170" y="-772.8" font-family="Courier,monospace" font-size="9.00">*</text>
<text text-anchor="middle" x="170" y="-762.8" font-family="Courier,monospace" font-size="9.00">+edit</text>
</g>
<!-- n0_0_0_0_0_0_0_0_0_0_0_0_0_0_0_0&#45;&gt;n0_0_0_0_0_0_0_0_0_0_0_0_0_0_0_0_0 -->
<g id="edge16" class="edge">
<title>n0_0_0_0_0_0_0_0_0_0_0_0_0_0_0_0&#45;&gt;n0_0_0_0_0_0_0_0_0_0_0_0_0_0_0_0_0</title>
<path fill="none" stroke="black" d="M170,-839.72C170,-830.82 170,-820.53 170,-811.08"/>
<polygon fill="black" stroke="black" points="172.45,-811.05 170,-804.05 167.55,-811.05 172.45,-811.05"/>
</g>
<!-- n0_0_0_0_0_0_0_0_0_0_0_0_0_0_0_0_0_0 -->
<g id="node18" class="node">
<title>n0_0_0_0_0_0_0_0_0_0_0_0_0_0_0_0_0_0</title>
<polygon fill="#a8d5b5" stroke="black" points="228,-720 112,-720 112,-672 228,-672 228,-720"/>
<text text-anchor="middle" x="170" y="-708.8" font-family="Courier,monospace" font-size="9.00">[submit]</text>
<text text-anchor="middle" x="170" y="-698.8" font-family="Courier,monospace" font-size="9.00">d=17 &#160;val=7.0 &#160;v=24</text>
<text text-anchor="middle" x="170" y="-688.8" font-family="Courier,monospace" font-size="9.00">*</text>
<text text-anchor="middle" x="170" y="-678.8" font-family="Courier,monospace" font-size="9.00">+edit</text>
</g>
<!-- n0_0_0_0_0_0_0_0_0_0_0_0_0_0_0_0_0&#45;&gt;n0_0_0_0_0_0_0_0_0_0_0_0_0_0_0_0_0_0 -->
<g id="edge17" class="edge">
<title>n0_0_0_0_0_0_0_0_0_0_0_0_0_0_0_0_0&#45;&gt;n0_0_0_0_0_0_0_0_0_0_0_0_0_0_0_0_0_0</title>
<path fill="none" stroke="black" d="M170,-755.72C170,-746.82 170,-736.53 170,-727.08"/>
<polygon fill="black" stroke="black" points="172.45,-727.05 170,-720.05 167.55,-727.05 172.45,-727.05"/>
</g>
<!-- n0_0_0_0_0_0_0_0_0_0_0_0_0_0_0_0_0_0_0 -->
<g id="node19" class="node">
<title>n0_0_0_0_0_0_0_0_0_0_0_0_0_0_0_0_0_0_0</title>
<polygon fill="#a8d5b5" stroke="black" points="228,-636 112,-636 112,-588 228,-588 228,-636"/>
<text text-anchor="middle" x="170" y="-624.8" font-family="Courier,monospace" font-size="9.00">[bash]</text>
<text text-anchor="middle" x="170" y="-614.8" font-family="Courier,monospace" font-size="9.00">d=18 &#160;val=6.9 &#160;v=23</text>
<text text-anchor="middle" x="170" y="-604.8" font-family="Courier,monospace" font-size="9.00">*</text>
<text text-anchor="middle" x="170" y="-594.8" font-family="Courier,monospace" font-size="9.00">+edit</text>
</g>
<!-- n0_0_0_0_0_0_0_0_0_0_0_0_0_0_0_0_0_0&#45;&gt;n0_0_0_0_0_0_0_0_0_0_0_0_0_0_0_0_0_0_0 -->
<g id="edge18" class="edge">
<title>n0_0_0_0_0_0_0_0_0_0_0_0_0_0_0_0_0_0&#45;&gt;n0_0_0_0_0_0_0_0_0_0_0_0_0_0_0_0_0_0_0</title>
<path fill="none" stroke="black" d="M170,-671.72C170,-662.82 170,-652.53 170,-643.08"/>
<polygon fill="black" stroke="black" points="172.45,-643.05 170,-636.05 167.55,-643.05 172.45,-643.05"/>
</g>
<!-- n0_0_0_0_0_0_0_0_0_0_0_0_0_0_0_0_0_0_0_0 -->
<g id="node20" class="node">
<title>n0_0_0_0_0_0_0_0_0_0_0_0_0_0_0_0_0_0_0_0</title>
<polygon fill="#a8d5b5" stroke="black" points="228,-552 112,-552 112,-504 228,-504 228,-552"/>
<text text-anchor="middle" x="170" y="-540.8" font-family="Courier,monospace" font-size="9.00">[submit]</text>
<text text-anchor="middle" x="170" y="-530.8" font-family="Courier,monospace" font-size="9.00">d=19 &#160;val=6.8 &#160;v=22</text>
<text text-anchor="middle" x="170" y="-520.8" font-family="Courier,monospace" font-size="9.00">*</text>
<text text-anchor="middle" x="170" y="-510.8" font-family="Courier,monospace" font-size="9.00">+edit</text>
</g>
<!-- n0_0_0_0_0_0_0_0_0_0_0_0_0_0_0_0_0_0_0&#45;&gt;n0_0_0_0_0_0_0_0_0_0_0_0_0_0_0_0_0_0_0_0 -->
<g id="edge19" class="edge">
<title>n0_0_0_0_0_0_0_0_0_0_0_0_0_0_0_0_0_0_0&#45;&gt;n0_0_0_0_0_0_0_0_0_0_0_0_0_0_0_0_0_0_0_0</title>
<path fill="none" stroke="black" d="M170,-587.72C170,-578.82 170,-568.53 170,-559.08"/>
<polygon fill="black" stroke="black" points="172.45,-559.05 170,-552.05 167.55,-559.05 172.45,-559.05"/>
</g>
<!-- n0_0_0_0_0_0_0_0_0_0_0_0_0_0_0_0_0_0_0_0_0 -->
<g id="node21" class="node">
<title>n0_0_0_0_0_0_0_0_0_0_0_0_0_0_0_0_0_0_0_0_0</title>
<polygon fill="#a8d5b5" stroke="black" points="228,-468 112,-468 112,-420 228,-420 228,-468"/>
<text text-anchor="middle" x="170" y="-456.8" font-family="Courier,monospace" font-size="9.00">[bash]</text>
<text text-anchor="middle" x="170" y="-446.8" font-family="Courier,monospace" font-size="9.00">d=20 &#160;val=6.8 &#160;v=21</text>
<text text-anchor="middle" x="170" y="-436.8" font-family="Courier,monospace" font-size="9.00">*</text>
<text text-anchor="middle" x="170" y="-426.8" font-family="Courier,monospace" font-size="9.00">+edit</text>
</g>
<!-- n0_0_0_0_0_0_0_0_0_0_0_0_0_0_0_0_0_0_0_0&#45;&gt;n0_0_0_0_0_0_0_0_0_0_0_0_0_0_0_0_0_0_0_0_0 -->
<g id="edge20" class="edge">
<title>n0_0_0_0_0_0_0_0_0_0_0_0_0_0_0_0_0_0_0_0&#45;&gt;n0_0_0_0_0_0_0_0_0_0_0_0_0_0_0_0_0_0_0_0_0</title>
<path fill="none" stroke="black" d="M170,-503.72C170,-494.82 170,-484.53 170,-475.08"/>
<polygon fill="black" stroke="black" points="172.45,-475.05 170,-468.05 167.55,-475.05 172.45,-475.05"/>
</g>
<!-- n0_0_0_0_0_0_0_0_0_0_0_0_0_0_0_0_0_0_0_0_0_0 -->
<g id="node22" class="node">
<title>n0_0_0_0_0_0_0_0_0_0_0_0_0_0_0_0_0_0_0_0_0_0</title>
<polygon fill="#a8d5b5" stroke="black" points="228,-384 112,-384 112,-336 228,-336 228,-384"/>
<text text-anchor="middle" x="170" y="-372.8" font-family="Courier,monospace" font-size="9.00">[submit]</text>
<text text-anchor="middle" x="170" y="-362.8" font-family="Courier,monospace" font-size="9.00">d=21 &#160;val=6.7 &#160;v=20</text>
<text text-anchor="middle" x="170" y="-352.8" font-family="Courier,monospace" font-size="9.00">*</text>
<text text-anchor="middle" x="170" y="-342.8" font-family="Courier,monospace" font-size="9.00">+edit</text>
</g>
<!-- n0_0_0_0_0_0_0_0_0_0_0_0_0_0_0_0_0_0_0_0_0&#45;&gt;n0_0_0_0_0_0_0_0_0_0_0_0_0_0_0_0_0_0_0_0_0_0 -->
<g id="edge21" class="edge">
<title>n0_0_0_0_0_0_0_0_0_0_0_0_0_0_0_0_0_0_0_0_0&#45;&gt;n0_0_0_0_0_0_0_0_0_0_0_0_0_0_0_0_0_0_0_0_0_0</title>
<path fill="none" stroke="black" d="M170,-419.72C170,-410.82 170,-400.53 170,-391.08"/>
<polygon fill="black" stroke="black" points="172.45,-391.05 170,-384.05 167.55,-391.05 172.45,-391.05"/>
</g>
<!-- n0_0_0_0_0_0_0_0_0_0_0_0_0_0_0_0_0_0_0_0_0_0_0 -->
<g id="node23" class="node">
<title>n0_0_0_0_0_0_0_0_0_0_0_0_0_0_0_0_0_0_0_0_0_0_0</title>
<polygon fill="#a8d5b5" stroke="black" points="228,-300 112,-300 112,-252 228,-252 228,-300"/>
<text text-anchor="middle" x="170" y="-288.8" font-family="Courier,monospace" font-size="9.00">[bash]</text>
<text text-anchor="middle" x="170" y="-278.8" font-family="Courier,monospace" font-size="9.00">d=22 &#160;val=6.7 &#160;v=19</text>
<text text-anchor="middle" x="170" y="-268.8" font-family="Courier,monospace" font-size="9.00">*</text>
<text text-anchor="middle" x="170" y="-258.8" font-family="Courier,monospace" font-size="9.00">+edit</text>
</g>
<!-- n0_0_0_0_0_0_0_0_0_0_0_0_0_0_0_0_0_0_0_0_0_0&#45;&gt;n0_0_0_0_0_0_0_0_0_0_0_0_0_0_0_0_0_0_0_0_0_0_0 -->
<g id="edge22" class="edge">
<title>n0_0_0_0_0_0_0_0_0_0_0_0_0_0_0_0_0_0_0_0_0_0&#45;&gt;n0_0_0_0_0_0_0_0_0_0_0_0_0_0_0_0_0_0_0_0_0_0_0</title>
<path fill="none" stroke="black" d="M170,-335.72C170,-326.82 170,-316.53 170,-307.08"/>
<polygon fill="black" stroke="black" points="172.45,-307.05 170,-300.05 167.55,-307.05 172.45,-307.05"/>
</g>
<!-- n0_0_0_0_0_0_0_0_0_0_0_0_0_0_0_0_0_0_0_0_0_0_0_0 -->
<g id="node24" class="node">
<title>n0_0_0_0_0_0_0_0_0_0_0_0_0_0_0_0_0_0_0_0_0_0_0_0</title>
<polygon fill="#a8d5b5" stroke="black" points="228,-216 112,-216 112,-168 228,-168 228,-216"/>
<text text-anchor="middle" x="170" y="-204.8" font-family="Courier,monospace" font-size="9.00">[submit]</text>
<text text-anchor="middle" x="170" y="-194.8" font-family="Courier,monospace" font-size="9.00">d=23 &#160;val=6.6 &#160;v=18</text>
<text text-anchor="middle" x="170" y="-184.8" font-family="Courier,monospace" font-size="9.00">*</text>
<text text-anchor="middle" x="170" y="-174.8" font-family="Courier,monospace" font-size="9.00">+edit</text>
</g>
<!-- n0_0_0_0_0_0_0_0_0_0_0_0_0_0_0_0_0_0_0_0_0_0_0&#45;&gt;n0_0_0_0_0_0_0_0_0_0_0_0_0_0_0_0_0_0_0_0_0_0_0_0 -->
<g id="edge23" class="edge">
<title>n0_0_0_0_0_0_0_0_0_0_0_0_0_0_0_0_0_0_0_0_0_0_0&#45;&gt;n0_0_0_0_0_0_0_0_0_0_0_0_0_0_0_0_0_0_0_0_0_0_0_0</title>
<path fill="none" stroke="black" d="M170,-251.72C170,-242.82 170,-232.53 170,-223.08"/>
<polygon fill="black" stroke="black" points="172.45,-223.05 170,-216.05 167.55,-223.05 172.45,-223.05"/>
</g>
<!-- n0_0_0_0_0_0_0_0_0_0_0_0_0_0_0_0_0_0_0_0_0_0_0_0_0 -->
<g id="node25" class="node">
<title>n0_0_0_0_0_0_0_0_0_0_0_0_0_0_0_0_0_0_0_0_0_0_0_0_0</title>
<polygon fill="#a8d5b5" stroke="black" points="228,-132 112,-132 112,-84 228,-84 228,-132"/>
<text text-anchor="middle" x="170" y="-120.8" font-family="Courier,monospace" font-size="9.00">[bash]</text>
<text text-anchor="middle" x="170" y="-110.8" font-family="Courier,monospace" font-size="9.00">d=24 &#160;val=6.6 &#160;v=17</text>
<text text-anchor="middle" x="170" y="-100.8" font-family="Courier,monospace" font-size="9.00">*</text>
<text text-anchor="middle" x="170" y="-90.8" font-family="Courier,monospace" font-size="9.00">+edit</text>
</g>
<!-- n0_0_0_0_0_0_0_0_0_0_0_0_0_0_0_0_0_0_0_0_0_0_0_0&#45;&gt;n0_0_0_0_0_0_0_0_0_0_0_0_0_0_0_0_0_0_0_0_0_0_0_0_0 -->
<g id="edge24" class="edge">
<title>n0_0_0_0_0_0_0_0_0_0_0_0_0_0_0_0_0_0_0_0_0_0_0_0&#45;&gt;n0_0_0_0_0_0_0_0_0_0_0_0_0_0_0_0_0_0_0_0_0_0_0_0_0</title>
<path fill="none" stroke="black" d="M170,-167.72C170,-158.82 170,-148.53 170,-139.08"/>
<polygon fill="black" stroke="black" points="172.45,-139.05 170,-132.05 167.55,-139.05 172.45,-139.05"/>
</g>
<!-- n0_0_0_0_0_0_0_0_0_0_0_0_0_0_0_0_0_0_0_0_0_0_0_0_0_0 -->
<g id="node26" class="node">
<title>n0_0_0_0_0_0_0_0_0_0_0_0_0_0_0_0_0_0_0_0_0_0_0_0_0_0</title>
<polygon fill="#a8d5b5" stroke="black" points="228,-48 112,-48 112,0 228,0 228,-48"/>
<text text-anchor="middle" x="170" y="-36.8" font-family="Courier,monospace" font-size="9.00">[submit]</text>
<text text-anchor="middle" x="170" y="-26.8" font-family="Courier,monospace" font-size="9.00">d=25 &#160;val=6.5 &#160;v=16</text>
<text text-anchor="middle" x="170" y="-16.8" font-family="Courier,monospace" font-size="9.00">*</text>
<text text-anchor="middle" x="170" y="-6.8" font-family="Courier,monospace" font-size="9.00">+edit</text>
</g>
<!-- n0_0_0_0_0_0_0_0_0_0_0_0_0_0_0_0_0_0_0_0_0_0_0_0_0&#45;&gt;n0_0_0_0_0_0_0_0_0_0_0_0_0_0_0_0_0_0_0_0_0_0_0_0_0_0 -->
<g id="edge25" class="edge">
<title>n0_0_0_0_0_0_0_0_0_0_0_0_0_0_0_0_0_0_0_0_0_0_0_0_0&#45;&gt;n0_0_0_0_0_0_0_0_0_0_0_0_0_0_0_0_0_0_0_0_0_0_0_0_0_0</title>
<path fill="none" stroke="black" d="M170,-83.72C170,-74.82 170,-64.53 170,-55.08"/>
<polygon fill="black" stroke="black" points="172.45,-55.05 170,-48.05 167.55,-55.05 172.45,-55.05"/>
</g>
</g>
</svg>
